# xmcd
#
# Track frame offsets: 
#        150
#        9076
#        25292
#        32898
#        37204
#        41038
#        52310
#        64709
#        74397
#        86874
#        102622
#        109973
#        118335
#        125124
#        135033
#        145877
#        161278
#        167895
#        178497
#        199018
#        213462
#        233537
#        251120
#        266257
#
# Disc length: 3752 seconds
#
# Revision: 2
# Processed by: cddbd v1.5.2PL0 Copyright (c) Steve Scherf et al.
# Submitted via: ExactAudioCopyFreeDBPlugin 1.0
#
DISCID=6d0ea618
DTITLE=Prinz Pi - ...lässt die Puppen tanzen!
DYEAR=2006
DGENRE=Rap
TTITLE0=Cyborg (Live)
TTITLE1=Keine Liebe (Live)
TTITLE2=Bonnie's Ranch 2 (Live)
TTITLE3=Wir Part 1 (Live)
TTITLE4=Wir Part 2 (Live)
TTITLE5=20.000 Meilen Untergrund (Live)
TTITLE6=Ohne Pi (Live)
TTITLE7=Schoene neue Welt (Live)
TTITLE8=Wunderkind (Live)
TTITLE9=Wuerfel (Live)
TTITLE10=Du Hure (Live)
TTITLE11=Frei zum Abschuss - Dampf (Live)
TTITLE12=Boba Fettt - Wunderbar (Live)
TTITLE13=H Eiskalt (Live)
TTITLE14=Ausser Pi (Live)
TTITLE15=Teufel im Schafspelz (Live)
TTITLE16=Neubeginn (Live)
TTITLE17=Wie sonst keiner (Live)
TTITLE18=Reiss es ab! (Live)
TTITLE19=Sneakerking (Live)
TTITLE20=No Peanuts (Exclusive)
TTITLE21=Umso mehr ihr mich hasst (Exclusive)
TTITLE22=Reiss es ab! RMX (Exclusive)
TTITLE23=Boba Fettt - Lebende Legende (Exclusive)
EXTD=
EXTT0=
EXTT1=
EXTT2=
EXTT3=
EXTT4=
EXTT5=
EXTT6=
EXTT7=
EXTT8=
EXTT9=
EXTT10=
EXTT11=
EXTT12=
EXTT13=
EXTT14=
EXTT15=
EXTT16=
EXTT17=
EXTT18=
EXTT19=
EXTT20=
EXTT21=
EXTT22=
EXTT23=
PLAYORDER=
